<?xml version="1.0" encoding="utf-8"?>
<?xml-stylesheet type="text/xsl" href="rss1.xsl"?>
<rss version="2.0" xmlns:atom="http://www.w3.org/2005/Atom" xmlns:content="http://purl.org/rss/1.0/modules/content/" xmlns:dc="http://purl.org/dc/elements/1.1/" xmlns:media="http://search.yahoo.com/mrss/">
<channel>
 <title>Getty</title>
 <link>http://www.gettyimg.com/</link>
 <atom:link href="http://www.gettyimg.com/" rel="self" type="application/rss+xml" />

 
                <item>
                <title><![CDATA[【Music Videos】NSYNC - For The Girl Who Has Everything (5.1) (Clean)]]></title>
                <link><![CDATA[https://sharemania.us/threads/nsync-for-the-girl-who-has-everything-5-1-clean.236158/]]></link>
                <description><![CDATA[<article>
<blockquote class="messageText SelectQuoteContainer ugc baseHtml">
<img src="https://i.ibb.co/yyBMZS7/06-N-Sync-For-The-Girl-Who-Has-Everything-5-1-VOB-thumbs-2024-01-20-23-08-37.jpg" class="bbCodeImage LbImage" alt="[​IMG]" data-url="https://i.ibb.co/yyBMZS7/06-N-Sync-For-The-Girl-Who-Has-Everything-5-1-VOB-thumbs-2024-01-20-23-08-37.jpg" style=""> <br>
<br>
<div class="ToggleTriggerAnchor bbCodeSpoilerContainer">
<button type="button" class="button bbCodeSpoilerButton ToggleTrigger Tooltip JsOnly" data-target="> .SpoilerTarget"><span>Spoiler: <span class="SpoilerTitle">MediaInfo</span></span></button>
<div class="SpoilerTarget bbCodeSpoilerText">'N Sync-For The Girl Who Has Everything (5.1).VOB<br>
Format : MPEG-PS<br>
File size : 197 MiB<br>
Duration : 3 min 55 s<br>
Overall bit rate mode : Variable<br>
Overall bit rate : 7 038 kb/s<br>
Frame rate : 29.970 FPS<br>
<br>
Video<br>
ID : 224 (0xE0)<br>
Format : MPEG Video<br>
Format version : Version 2<br>
Format profile : Main@Main<br>
Format settings : CustomMatrix / BVOP<br>
Format settings, BVOP : Yes<br>
Format settings, Matrix : Custom<br>
Format settings, GOP : M=3, N=15<br>
Format settings, picture st : Frame<br>
Duration : 3 min 54 s<br>
Bit rate mode : Variable<br>
Bit rate : 6 450 kb/s<br>
Width : 720 pixels<br>
Height : 480 pixels<br>
Display aspect ratio : 4:3<br>
Frame rate : 29.970 (30000/1001) FPS<br>
Standard : NTSC<br>
Color space : YUV<br>
Chroma subsampling : 4:2:0<br>
Bit depth : 8 bits<br>
Scan type : Interlaced<br>
Scan order : Top Field First<br>
Compression mode : Lossy<br>
Bits/(Pixel*Frame) : 0.623<br>
Time code of first frame : 01:52:35;01<br>
Time code source : Group of pictures header<br>
GOP, Open/Closed : Open<br>
Stream size : 181 MiB (92%)<br>
<br>
Audio<br>
ID : 189 (0xBD)-128 (0x80)<br>
Format : AC-3<br>
Format/Info : Audio Coding 3<br>
Commercial name : Dolby Digital<br>
Muxing mode : DVD-Video<br>
Duration : 3 min 55 s<br>
Bit rate mode : Constant<br>
Bit rate : 448 kb/s<br>
Channel(s) : 6 channels<br>
Channel layout : L R C LFE Ls Rs<br>
Sampling rate : 48.0 kHz<br>
Frame rate : 31.250 FPS (1536 SPF)<br>
Compression mode : Lossy<br>
Delay relative to video : -247 ms<br>
Stream size : 12.6 MiB (6%)<br>
Service kind : Complete Main<br>
<br>
Text<br>
ID : 189 (0xBD)-32 (0x20)<br>
Format : RLE<br>
Format/Info : Run-length encoding<br>
Muxing mode : DVD-Video<br>
Duration : 3 min 45 s<br>
Delay relative to video : 5 s 406 ms</div>
</div><br>
<div class="bbCodeBlock bbCodeVfcHH HiddenContent">
<div class="attribution type">Hidden Content:</div>
<blockquote>You must reply before you can see the hidden data contained here.</blockquote>
</div>
<div class="messageTextEndMarker">&nbsp;</div>
</blockquote>
</article>]]></description>
                <author><![CDATA[DJ-RoGeRs-BS]]></author>
                </item>

                
                <item>
                <title><![CDATA[【Albums (lossy)】360 RA - Victoria Monét - JAGUAR II (360RA | MPEG-H 3D Audio | WAV Decoded | 12 channels)]]></title>
                <link><![CDATA[https://sharemania.us/threads/victoria-mon%C3%A9t-jaguar-ii-360ra-mpeg-h-3d-audio-wav-decoded-12-channels.236159/]]></link>
                <description><![CDATA[<article>
<blockquote class="messageText SelectQuoteContainer ugc baseHtml">
<div style="text-align: center"><img src="https://i.scdn.co/image/ab67616d0000b273d03c8d74d7f963dee63ef893" class="bbCodeImage LbImage" alt="[​IMG]" data-url="https://i.scdn.co/image/ab67616d0000b273d03c8d74d7f963dee63ef893" style=""> <br>
<br>
.・。.・゜✭・.・✫・゜・。.<br>
<b><i><br>
Victoria Monet - JAGUAR II [LP]</i></b><br>
Genre: R&amp;B/Soul<br>
Year: 2023<br>
Size: 1.55 GB<br>
<br>
.・。.・゜✭・.・✫・゜・。.<br>
<br>
<br>
<div class="bbCodeBlock bbCodeVfcHH HiddenContent">
<div class="attribution type">Hidden Content:</div>
<blockquote>You must reply before you can see the hidden data contained here.</blockquote>
</div><br>
.・。.・゜✭・.・✫・゜・。.<br>
<br>
<i>[I was finally able to decode it AHH!! filtered stems pack soon <img src="styles/default/xenforo/smilies/big_smile-48.png" class="mceSmilie" alt=":)" title="Smile    :)">)]</i><br>
<br>
.・。.・゜✭・.・✫・゜・。.<br>
<br>
​</div>
<div class="messageTextEndMarker">&nbsp;</div>
</blockquote>
</article>]]></description>
                <author><![CDATA[bebesab]]></author>
                </item>

                
                <item>
                <title><![CDATA[【Singles (lossless)】WAV - Britney Spears - Circus Beat The Leak Megamix [US Promo CDS] 16bit／44.1kHz]]></title>
                <link><![CDATA[https://sharemania.us/threads/britney-spears-circus-beat-the-leak-megamix-us-promo-cds-16bit%EF%BC%8F44-1khz.236160/]]></link>
                <description><![CDATA[<article>
<blockquote class="messageText SelectQuoteContainer ugc baseHtml">
<img src="https://i.discogs.com/B09MeuHRrx_tkOpek3lk3wsfwllJSnV3pufr1ctecBI/rs:fit/g:sm/q:90/h:600/w:593/czM6Ly9kaXNjb2dz/LWRhdGFiYXNlLWlt/YWdlcy9SLTY2MDI5/NDAtMTQyMjg5NjIw/Ny01NDc1LmpwZWc.jpeg" class="bbCodeImage LbImage" alt="[​IMG]" data-url="https://i.discogs.com/B09MeuHRrx_tkOpek3lk3wsfwllJSnV3pufr1ctecBI/rs:fit/g:sm/q:90/h:600/w:593/czM6Ly9kaXNjb2dz/LWRhdGFiYXNlLWlt/YWdlcy9SLTY2MDI5/NDAtMTQyMjg5NjIw/Ny01NDc1LmpwZWc.jpeg" style=""> <br>
<br>
Artist : Britney Spears<br>
Album : Beat The Leak Megamix<br>
Year : 2008<br>
Genre: Pop<br>
Quality : WAV CD 16bits/44.1kHz<br>
Label: Released by Jive<br>
<br>
<div class="bbCodeBlock bbCodeVfcHH HiddenContent">
<div class="attribution type">Hidden Content:</div>
<blockquote>You must reply before you can see the hidden data contained here.</blockquote>
</div>
<div class="messageTextEndMarker">&nbsp;</div>
</blockquote>
</article>]]></description>
                <author><![CDATA[MeAgainstTheMusic]]></author>
                </item>

                
                <item>
                <title><![CDATA[【Music Videos】NSYNC - I Drive Myself Crazy (5.1) (Clean)]]></title>
                <link><![CDATA[https://sharemania.us/threads/nsync-i-drive-myself-crazy-5-1-clean.236161/]]></link>
                <description><![CDATA[<article>
<blockquote class="messageText SelectQuoteContainer ugc baseHtml">
<img src="https://i.ibb.co/4sqDfTD/08-N-Sync-I-Drive-Myself-Crazy-5-1-VOB-thumbs-2024-01-20-23-58-50.jpg" class="bbCodeImage LbImage" alt="[​IMG]" data-url="https://i.ibb.co/4sqDfTD/08-N-Sync-I-Drive-Myself-Crazy-5-1-VOB-thumbs-2024-01-20-23-58-50.jpg" style=""> <br>
<br>
<div class="ToggleTriggerAnchor bbCodeSpoilerContainer">
<button type="button" class="button bbCodeSpoilerButton ToggleTrigger Tooltip JsOnly" data-target="> .SpoilerTarget"><span>Spoiler: <span class="SpoilerTitle">MediaInfo</span></span></button>
<div class="SpoilerTarget bbCodeSpoilerText">'N Sync-I Drive Myself Crazy (5.1).VOB<br>
Format : MPEG-PS<br>
File size : 180 MiB<br>
Duration : 4 min 12 s<br>
Overall bit rate mode : Variable<br>
Overall bit rate : 5 976 kb/s<br>
Frame rate : 29.970 FPS<br>
<br>
Video<br>
ID : 224 (0xE0)<br>
Format : MPEG Video<br>
Format version : Version 2<br>
Format profile : Main@Main<br>
Format settings : CustomMatrix / BVOP<br>
Format settings, BVOP : Yes<br>
Format settings, Matrix : Custom<br>
Format settings, GOP : M=3, N=15<br>
Format settings, picture st : Frame<br>
Duration : 4 min 12 s<br>
Bit rate mode : Variable<br>
Bit rate : 5 409 kb/s<br>
Width : 720 pixels<br>
Height : 480 pixels<br>
Display aspect ratio : 4:3<br>
Frame rate : 29.970 (30000/1001) FPS<br>
Standard : NTSC<br>
Color space : YUV<br>
Chroma subsampling : 4:2:0<br>
Bit depth : 8 bits<br>
Scan type : Interlaced<br>
Scan order : Top Field First<br>
Compression mode : Lossy<br>
Bits/(Pixel*Frame) : 0.522<br>
Time code of first frame : 00:59:59:00<br>
Time code source : Group of pictures header<br>
GOP, Open/Closed : Open<br>
GOP, Open/Closed of first f : Closed<br>
Stream size : 163 MiB (91%)<br>
<br>
Audio<br>
ID : 189 (0xBD)-128 (0x80)<br>
Format : AC-3<br>
Format/Info : Audio Coding 3<br>
Commercial name : Dolby Digital<br>
Muxing mode : DVD-Video<br>
Duration : 4 min 12 s<br>
Bit rate mode : Constant<br>
Bit rate : 448 kb/s<br>
Channel(s) : 6 channels<br>
Channel layout : L R C LFE Ls Rs<br>
Sampling rate : 48.0 kHz<br>
Frame rate : 31.250 FPS (1536 SPF)<br>
Compression mode : Lossy<br>
Stream size : 13.5 MiB (7%)<br>
Service kind : Complete Main</div>
</div><br>
<div class="bbCodeBlock bbCodeVfcHH HiddenContent">
<div class="attribution type">Hidden Content:</div>
<blockquote>You must reply before you can see the hidden data contained here.</blockquote>
</div>
<div class="messageTextEndMarker">&nbsp;</div>
</blockquote>
</article>]]></description>
                <author><![CDATA[DJ-RoGeRs-BS]]></author>
                </item>

                </channel></rss>